# xmcd
#
# Track frame offsets: 
#        150
#        16000
#        25014
#        37883
#        50028
#        67905
#        82002
#        97332
#        110474
#        119899
#        132158
#        146841
#        159441
#        175789
#        195200
#        211220
#        229349
#        246474
#        253133
#        265975
#        279220
#        293366
#        306940
#        320495
#        330651
#
# Disc length: 4601 seconds
#
# Revision: 2
# Processed by: cddbd v1.5.2PL0 Copyright (c) Steve Scherf et al.
# Submitted via: ExactAudioCopyFreeDBPlugin 1.0
#
DISCID=6a11f719
DTITLE=Various Artist - Blacks and the Birth of the Recording Industr
DTITLE=y, 1891-1922
DYEAR=2005
DGENRE=Blues
TTITLE0=Booker T. Washington - Atlanta Exposition Speech
TTITLE1=Thomas Craig - Old Black Joe
TTITLE2=Carroll Clark - Old Dog Tray
TTITLE3=Daisy Tapley and Carroll Clark - I Surrender All
TTITLE4=Afro-American Folk Song Singers - Swing Along
TTITLE5=Afro-American Folk Song Singers - The Rain Song
TTITLE6=Right Quintette - Exhortation
TTITLE7=Roland Hayes - Arioso from "Pagliacci" ("Vesta La Giubba")
TTITLE8=Harry T. Burleigh - Go Down Moses
TTITLE9=Edward H. S. Boatner - Sometimes I Feel Like a Motherless Chil
TTITLE9=d
TTITLE10=Florence Cole-Talbert - Villanelle
TTITLE11=R. Nathaniel Dett - Barcarnolle
TTITLE12=Clarence Cameron White - Lament
TTITLE13=Edward Sterling Wright - When de Co'n Pone's Hot - 'Possum
TTITLE14=Europe's Society Orchestra - Down Home Rag
TTITLE15=Joan Sawyer's Persian Garden Orchestra - Bregeiro (Rio Brazil
TTITLE15=ian Maxixe)
TTITLE16=Ciro's Club Coon Orchestra - On the Shore at Le-Lei-Wei
TTITLE17=Wilbur C. Sweatman - Down Home Rag
TTITLE18=Memphis Pickaninny Band - Some Jazz Blues
TTITLE19=Eubie Blake Trio - Sarah from Sahara
TTITLE20=Blake's Jazzone Orchestra - The Jazz Dance
TTITLE21=Wilbur C. Sweatman's Original Jazz Band - Ev'rybody's Crazy '
TTITLE21=Bout The Doggone Blues But I'm Happy
TTITLE22=Lieut. Jim Europe's 369th U.S. Infantry "Hell Fighters" Band 
TTITLE22=/ Darktown Strutters' Ball
TTITLE23=Ford Dabney's Band - Camp Meeting Blues
TTITLE24=W.C. Handy's Memphis Blues Band - St. Louis Blues
EXTD=
EXTT0=
EXTT1=
EXTT2=
EXTT3=
EXTT4=
EXTT5=
EXTT6=
EXTT7=
EXTT8=
EXTT9=
EXTT10=
EXTT11=
EXTT12=
EXTT13=
EXTT14=
EXTT15=
EXTT16=
EXTT17=
EXTT18=
EXTT19=
EXTT20=
EXTT21=
EXTT22=
EXTT23=
EXTT24=
PLAYORDER=
